<?xml version="1.0" encoding="UTF-8"?>
<svg version="1.1" xmlns="http://www.w3.org/2000/svg" width="225" height="225">
<path d="M0 0 C74.25 0 148.5 0 225 0 C225 74.25 225 148.5 225 225 C150.75 225 76.5 225 0 225 C0 150.75 0 76.5 0 0 Z " fill="#FEFEFE" transform="translate(0,0)"/>
<path d="M0 0 C3.96 0 7.92 0 12 0 C12.33 17.16 12.66 34.32 13 52 C18.28 47.05 23.56 42.1 29 37 C34.0625 32.4375 34.0625 32.4375 36.38671875 30.36328125 C39.75106975 27.32078146 43.06293382 24.22420099 46.375 21.125 C47.66011991 19.92444027 48.94527596 18.72391921 50.23046875 17.5234375 C52.08192454 15.79376931 53.93257314 14.06330171 55.77978516 12.32910156 C57.41170167 10.79839279 59.04891344 9.27356199 60.6875 7.75 C61.61949219 6.87859375 62.55148438 6.0071875 63.51171875 5.109375 C66 3 66 3 70 1 C70 20.8 70 40.6 70 61 C77.59 61 85.18 61 93 61 C93 89.71 93 118.42 93 148 C85.41 148 77.82 148 70 148 C70 165.82 70 183.64 70 202 C64.70991231 198.03243423 59.91177459 194.21538442 55.1875 189.6875 C51.07006019 185.79880685 46.9278675 182.03836975 42.5 178.5 C37.52940997 174.52499207 32.89184373 170.265229 28.296875 165.8671875 C23.39056595 161.21726515 18.34869471 157.27895577 13 153 C12.67 169.5 12.34 186 12 203 C8.04 203 4.08 203 0 203 C-0.33 186.83 -0.66 170.66 -1 154 C-4.3 156.97 -7.6 159.94 -11 163 C-12.73505214 164.43493502 -14.4816045 165.85636381 -16.25 167.25 C-20.67932417 170.82849354 -24.85703136 174.59997454 -29 178.5 C-33.98884167 183.19597856 -39.09602246 187.63931797 -44.44921875 191.921875 C-47.8455308 194.68885511 -51.08544403 197.61358147 -54.3203125 200.56640625 C-56 202 -56 202 -57 202 C-57 184.18 -57 166.36 -57 148 C-64.92 148 -72.84 148 -81 148 C-81 119.29 -81 90.58 -81 61 C-73.08 61 -65.16 61 -57 61 C-57 41.2 -57 21.4 -57 1 C-48.06451613 7.7016129 -48.06451613 7.7016129 -44.5 11.4375 C-41.19840708 14.88512492 -37.71728087 18.01835867 -34.11425781 21.1418457 C-30.70651877 24.13679973 -27.42034995 27.25755852 -24.125 30.375 C-16.24628424 37.7927368 -8.31638881 45.06967599 0 52 C0 34.84 0 17.68 0 0 Z " fill="#050505" transform="translate(106,11)"/>
<path d="M0 0 C0.32692793 7.2059173 0.57435788 14.41019615 0.72537041 21.62207317 C0.79794912 24.9738312 0.90364421 28.31663032 1.05615234 31.66625977 C2.0962048 55.11113978 2.0962048 55.11113978 -2.98535156 61.57470703 C-5.79953342 64.44861373 -8.8537777 66.760291 -12.2580719 68.89048767 C-14.85186456 70.54259084 -17.15158002 72.52103369 -19.5 74.5 C-20.37269531 75.19738281 -21.24539062 75.89476562 -22.14453125 76.61328125 C-26.21167298 80.01276633 -30.05272722 83.64147066 -33.87890625 87.30859375 C-36.86460789 90.14010423 -39.90841103 92.742277 -43.21606445 95.19458008 C-43.92737015 95.72336258 -44.63867584 96.25214508 -45.37153625 96.79695129 C-45.90892929 97.19395737 -46.44632233 97.59096344 -47 98 C-47.35056576 90.81157362 -47.61551353 83.62503979 -47.77718258 76.429739 C-47.85489615 73.08528824 -47.96803082 69.75117284 -48.1315918 66.40917969 C-49.24691127 43.01808734 -49.24691127 43.01808734 -43.73925781 36.16748047 C-40.68410927 33.06315491 -37.3724353 30.50195151 -33.72453308 28.13227844 C-31.59269503 26.73257536 -29.7416374 25.10788325 -27.875 23.375 C-27.28332031 22.86582031 -26.69164063 22.35664062 -26.08203125 21.83203125 C-23.19559829 19.29218686 -20.38219066 16.67598948 -17.5625 14.0625 C-9.02660421 6.16861398 -9.02660421 6.16861398 -5.8125 3.25 C-5.11769531 2.61578125 -4.42289063 1.9815625 -3.70703125 1.328125 C-2 0 -2 0 0 0 Z " fill="#FAFAFA" transform="translate(107,91)"/>
<path d="M0 0 C2.97816718 1.42432416 4.97931682 2.77903265 7.25 5.1875 C9.62823921 7.63598256 12.03799459 9.96071053 14.625 12.1875 C18.28144648 15.34083079 21.8347071 18.59286415 25.375 21.875 C34.35124232 31.02193245 34.35124232 31.02193245 44.6081543 38.33105469 C48.58853668 42.7725715 47.61134011 47.89794237 47.48828125 53.640625 C47.48120651 54.87794373 47.47413177 56.11526245 47.46684265 57.39007568 C47.44360174 60.67197726 47.39871955 63.95264431 47.34332275 67.23413086 C47.2920777 70.58565901 47.26974425 73.93724022 47.24414062 77.2890625 C47.18899735 83.85985763 47.10531265 90.42982786 47 97 C43.13861692 95.19970487 40.32045059 92.71886212 37.25 89.8125 C36.16985004 88.8066693 35.08912149 87.80145959 34.0078125 86.796875 C33.48735352 86.31154297 32.96689453 85.82621094 32.43066406 85.32617188 C28.29715053 81.49456001 23.99635467 77.85149693 19.71484375 74.1875 C19.11462402 73.67372803 18.5144043 73.15995605 17.89599609 72.63061523 C16.71884976 71.62384947 15.54086171 70.61806657 14.36181641 69.61352539 C13.23723129 68.65302967 12.12163732 67.68189475 11.01583862 66.6998291 C9.0050886 64.95038552 9.0050886 64.95038552 6.70471191 63.4072113 C3.06268572 60.68688315 0.42638506 58.57316615 -0.79017639 54.08460999 C-1.03989188 50.60638184 -1.01317683 47.23460169 -0.87890625 43.75 C-0.85980446 41.86921753 -0.85980446 41.86921753 -0.84031677 39.95043945 C-0.7986449 36.64104028 -0.71804275 33.33569789 -0.61798096 30.02764893 C-0.52535941 26.64263185 -0.48469291 23.25701684 -0.43945312 19.87109375 C-0.34048707 13.2458272 -0.19009356 6.6232448 0 0 Z " fill="#FAFAFA" transform="translate(118,91)"/>
<path d="M0 0 C20.13 0 40.26 0 61 0 C57.02283647 4.64002411 53.23974636 8.82666703 48.75 12.875 C48.1835376 13.3918335 47.6170752 13.90866699 47.03344727 14.44116211 C45.3599526 15.96562921 43.68117855 17.48401507 42 19 C41.12730469 19.78761719 40.25460938 20.57523438 39.35546875 21.38671875 C37.75298494 22.82869529 36.14883611 24.26882378 34.54296875 25.70703125 C32.66137596 27.40364411 30.78953977 29.10822182 28.92578125 30.82421875 C28.39799072 31.31011475 27.8702002 31.79601074 27.32641602 32.29663086 C25.8362594 33.67047356 24.34776567 35.0461193 22.859375 36.421875 C20 39 20 39 16.6953125 41.15234375 C12.70709077 45.36598671 13.10993921 49.20611958 13.125 54.8125 C13.104375 55.79154297 13.08375 56.77058594 13.0625 57.77929688 C13.01554326 60.18583001 13.00425639 62.59301256 13 65 C8.71 65 4.42 65 0 65 C0 43.55 0 22.1 0 0 Z " fill="#FBFBFB" transform="translate(36,83)"/>
<path d="M0 0 C19.8 0 39.6 0 60 0 C60 21.45 60 42.9 60 65 C56.04 65 52.08 65 48 65 C48.1134375 63.65808594 48.226875 62.31617188 48.34375 60.93359375 C48.88255618 49.39904259 48.88255618 49.39904259 43.65234375 39.51171875 C40.35212678 36.28090986 36.80652996 33.40298511 33.12109375 30.62451172 C27.49894347 26.3185969 22.32681164 21.42334702 17.125 16.625 C12.41976549 12.28640714 7.66351381 8.01104169 2.86328125 3.77734375 C1 2 1 2 0 0 Z " fill="#FEFEFE" transform="translate(128,83)"/>
<path d="M0 0 C0 11.55 0 23.1 0 35 C-12.54 35 -25.08 35 -38 35 C-34.074574 30.42033633 -30.36883185 26.29856524 -25.9375 22.3125 C-24.80200276 21.27743214 -23.66658866 20.24227305 -22.53125 19.20703125 C-21.95246094 18.68189941 -21.37367188 18.15676758 -20.77734375 17.61572266 C-17.81740159 14.92494007 -14.87769816 12.21231493 -11.9375 9.5 C-11.13397095 8.76197144 -11.13397095 8.76197144 -10.31420898 8.0090332 C-8.06736416 5.93993718 -5.8678443 3.8620984 -3.75390625 1.65625 C-2 0 -2 0 0 0 Z " fill="#F4F4F4" transform="translate(165,37)"/>
<path d="M0 0 C5.1384263 3.85381973 9.18257546 6.95752182 13.5 11.4375 C17.16130107 15.18390363 20.89555883 18.76057225 24.875 22.16796875 C27.61763764 24.53248539 30.31252676 26.94828383 33 29.375 C33.94875 30.22835937 34.8975 31.08171875 35.875 31.9609375 C36.57625 32.63382813 37.2775 33.30671875 38 34 C38 34.33 38 34.66 38 35 C25.46 35 12.92 35 0 35 C0 23.45 0 11.9 0 0 Z " fill="#F9F9F9" transform="translate(60,37)"/>
</svg>
