<svg width="24" height="24" viewBox="0 0 24 24" fill="none" xmlns="http://www.w3.org/2000/svg">
<g clip-path="url(#clip0_1673_53)">
<path d="M9.271 15.266L17.249 9.378C17.6405 9.09 18.2 9.201 18.386 9.6505C19.367 12.0145 18.928 14.856 16.9765 16.808C15.025 18.7585 12.31 19.186 9.827 18.212L7.1155 19.4675C11.0045 22.125 15.7275 21.4675 18.678 18.516C21.019 16.1765 21.7435 12.987 21.0655 10.11L21.071 10.1155C20.088 5.8895 21.312 4.201 23.8215 0.748C23.8795 0.666 23.94 0.583 24 0.5L20.699 3.7995V3.7885L9.269 15.2675M7.624 16.696C4.833 14.0315 5.3145 9.9065 7.695 7.5265C9.4555 5.7655 12.342 5.0475 14.8605 6.103L17.5665 4.8545C17.0795 4.5025 16.4545 4.1245 15.737 3.8575C12.498 2.5245 8.618 3.1875 5.9845 5.8185C3.452 8.3505 2.655 12.244 4.0225 15.5665C5.0445 18.049 3.369 19.8065 1.6815 21.578C1.082 22.2055 0.4835 22.835 0 23.5L7.6205 16.696" fill="white"/>
</g>
<defs>
<clipPath id="clip0_1673_53">
<rect width="24" height="24" fill="white"/>
</clipPath>
</defs>
</svg>
